# xmcd
#
# Track frame offsets: 
#        150
#        14370
#        30404
#        45314
#        66059
#        82853
#        104171
#        135013
#        157672
#        187283
#        204492
#
# Disc length: 3029 seconds
#
# Revision: 0
# Processed by: cddbd v1.5.2PL0 Copyright (c) Steve Scherf et al.
# Submitted via: ExactAudioCopy v1.0b4
#
DISCID=7f0bd30b
DTITLE=Mark Easton Limousine - Greener
DYEAR=2004
DGENRE=Blues, Blues Rock
TTITLE0=Greener
TTITLE1=Butterfly
TTITLE2=Long Gone
TTITLE3=You Want It All
TTITLE4=Prison Cell Blues
TTITLE5=Nervous Breakdown
TTITLE6=Tomcat Blues
TTITLE7=Rock My World
TTITLE8=Spiritual Man
TTITLE9=Fall From Grace
TTITLE10=How It Feels
EXTD=
EXTT0=
EXTT1=
EXTT2=
EXTT3=
EXTT4=
EXTT5=
EXTT6=
EXTT7=
EXTT8=
EXTT9=
EXTT10=
PLAYORDER=
